<?xml version="1.0" encoding="UTF-8"?>
<svg width="282px" height="282px" viewBox="0 0 282 282" version="1.1" xmlns="http://www.w3.org/2000/svg" xmlns:xlink="http://www.w3.org/1999/xlink">
    <g id="Page-1" stroke="none" stroke-width="1" fill="none" fill-rule="evenodd">
        <g id="Group-2" transform="translate(1.000000, 1.000000)">
            <rect id="Rectangle" stroke-opacity="0.01" stroke="#FFFFFF" x="0" y="0" width="280" height="280"></rect>
            <g id="Group-30" transform="translate(59.000000, 23.000000)" fill="#FF1C95" fill-rule="nonzero">
                <path d="M23.7297962,233.854866 C23.633819,233.7109 22.2421481,233.37498 20.6585227,233.087048 C19.1228859,232.799116 16.8674194,232.031297 15.6677031,231.311468 C13.7961458,230.255717 10.0530311,226.752546 8.13348513,224.353113 C6.98175754,222.913454 5.59008668,219.938158 5.59008668,218.978385 C5.59008668,218.402521 5.25416616,217.538725 4.87025694,217.01085 C4.48634775,216.530964 4.15042719,215.763145 4.15042719,215.331247 C4.15042719,214.899349 3.71852935,214.17952 3.19065421,213.699633 C2.66277906,213.219747 2.23088121,212.40394 2.23088121,211.924053 C2.23088121,211.396178 2.03892661,210.62836 1.79898337,210.148473 C1.51105147,209.668587 1.22311957,207.845018 1.07915362,206.117427 C0.983176324,204.341846 0.743233074,202.710233 0.599267125,202.470289 C0.407312528,202.230346 0.503289826,201.894425 0.743233074,201.750459 C0.983176324,201.558505 0.887199023,200.838675 0.503289826,200.022868 C-0.120562619,198.87114 -0.120562619,197.959356 0.263346579,195.128026 C0.983176324,189.945252 1.75099472,185.962194 2.18289256,185.146387 C2.42283581,184.714489 2.75875636,183.658739 2.90272231,182.746954 C3.19065421,181.259306 3.8624953,179.291771 5.15818884,176.268486 C6.64583699,172.621349 7.12572349,171.325656 7.26968944,170.269905 C7.36566673,169.598064 8.22946242,167.534552 9.23722407,165.710984 C10.2449857,163.839426 11.2527474,161.871891 11.5406792,161.296028 C11.8286111,160.672175 12.2125203,160.192289 12.4524636,160.192289 C12.6444182,160.192289 12.7883841,160.000334 12.7883841,159.712402 C12.7883841,158.896595 17.6352378,152.610082 20.4665681,149.778752 C26.5611266,143.732182 29.0565363,141.620681 32.12781,140.133033 C33.9033898,139.269237 35.5829928,138.309465 35.9189131,137.973544 C36.8306976,137.109748 39.23013,136.293941 45.7565864,134.662327 C48.971826,133.84652 51.5152244,132.982724 51.3712584,132.79077 C50.8433834,131.878986 50.6034399,130.007428 50.3634968,124.680688 C50.2195308,121.657403 49.9315989,118.92205 49.6916558,118.634118 C49.4517123,118.346186 49.1637804,115.322902 48.971826,111.915707 C48.8278601,108.508513 48.4919394,104.957353 48.2999847,104.045569 C48.0600416,103.133784 47.7241209,98.5748627 47.580155,93.9679523 C47.3882006,89.361042 47.1002687,85.4259726 46.908314,85.2340182 C46.7163593,84.9940747 45.7085977,85.2820066 44.700836,85.809882 C42.7812902,86.8176436 41.5335851,87.0575868 36.0628791,87.4894846 C27.9527974,88.2093144 22.7700233,88.4492575 19.6027724,88.3052916 C16.4355215,88.1613256 16.0516123,88.0173597 15.6677031,87.009598 C15.4277599,86.3857458 14.8039074,85.6179273 14.2280436,85.3299954 C12.8843614,84.6101656 13.0283274,83.6983812 14.8998847,81.8748126 C16.6274761,80.1472212 21.1384092,76.6920385 21.6662843,76.6920385 C22.0501935,76.6920385 27.328945,72.7569691 29.0085476,71.2213324 C30.3522299,69.9736276 34.1913217,65.1747625 36.1108678,62.2474548 C37.9824252,59.4641133 41.3416307,52.4577703 41.7735286,50.442247 C41.965483,49.6264401 42.4453696,48.6666672 42.8292787,48.3307465 C43.2131881,48.0428146 43.50112,47.2270077 43.50112,46.5071779 C43.50112,45.5474047 43.9810063,44.9235525 45.7085977,43.8678021 C47.8200984,42.5241198 48.0600416,42.4761314 52.0430994,42.8120517 C55.6422481,43.0999836 56.4580554,43.3399271 58.6175446,44.7795865 C59.9612266,45.6433822 61.9767499,46.7471211 63.1284775,47.2270077 C65.6238874,48.1867806 65.959808,48.9066103 65.7678533,52.1698384 C65.5279102,55.5770327 66.1997512,54.857203 66.5356718,51.3540314 C66.7756149,48.6666672 66.8236037,48.6186784 68.2152744,48.6186784 C69.6069452,48.6186784 69.6549339,48.6666672 69.5589567,50.8741449 C69.510968,52.8896681 68.7911382,55.529044 67.4474559,58.6962948 C66.9195809,59.9919884 66.3437171,66.3264901 66.487683,69.2537979 C66.5356718,70.5974799 67.159524,76.5000838 67.7833766,82.4506764 C69.1270589,94.2558842 69.2710248,96.0314644 69.6549339,106.684945 C69.7988999,110.668002 69.9908546,115.514856 70.1348205,117.482391 C70.2307977,119.689868 70.1348205,121.177517 69.7988999,121.369471 C69.4629792,121.561426 69.5589567,122.089301 70.0868318,122.857119 C70.5187296,123.528961 70.7586728,124.440745 70.5667184,124.872643 C70.182809,125.832416 70.9986162,125.880404 71.8144232,124.920631 C72.1503438,124.536722 72.8221848,124.200802 73.3020714,124.200802 C73.8299464,124.200802 74.2138555,124.008847 74.2138555,123.720915 C74.2138555,123.241029 80.2124369,120.217744 82.3719262,119.593891 C83.0437672,119.449925 84.4354379,118.92205 85.4911883,118.442164 C86.5469387,117.962277 89.234303,116.906527 91.4897694,116.042731 C93.7452361,115.178936 96.5285776,113.93123 97.728294,113.211401 C98.9280103,112.53956 100.463647,111.627775 101.135488,111.243866 C103.678887,109.756218 105.550444,108.556502 108.333785,106.588967 C109.869422,105.437239 111.35707,104.525455 111.645002,104.525455 C111.884946,104.525455 112.124889,104.285512 112.124889,104.045569 C112.124889,103.757637 112.700753,103.27775 113.468571,102.94183 C114.860242,102.317977 115.62806,101.742114 119.995027,97.8550329 C127.097348,91.5205312 134.199668,83.2664834 134.199668,81.2509601 C134.199668,80.19521 131.128394,79.8592893 128.537007,80.5791191 C125.609699,81.4429148 114.284378,81.4429148 110.445286,80.6271078 C104.446705,79.2834255 100.991522,78.1316979 99.5998513,76.9319816 C98.7840444,76.2601406 97.9202487,75.7322656 97.6803052,75.7322656 C97.3923733,75.7322656 96.1446685,74.7245039 94.848975,73.5247876 C91.8736788,70.7414458 91.0098831,68.1980475 91.0098831,62.0555004 C91.0098831,56.4408284 93.1693723,48.0428146 95.8567366,42.9560177 C96.1446685,42.4761314 96.8165095,41.1804378 97.3923733,40.0766987 C100.70359,33.5502425 105.790387,27.311718 112.028912,21.9849779 C114.764265,19.6815227 115.100185,19.4895681 118.363413,18.6257724 C120.330948,18.0978972 124.266017,16.3703059 129.640746,13.7309301 C130.696496,13.203055 131.896213,12.3392593 132.376099,11.8593728 C132.855986,11.283509 133.76777,10.9475885 134.871509,10.9475885 C135.783293,10.9475885 136.647089,10.7556339 136.791055,10.5636793 C137.078987,10.0358041 140.53417,10.2277587 141.58992,10.8036225 C142.885613,11.5234523 142.021817,12.7231685 139.09451,14.4027712 C137.606862,15.2185783 136.695077,16.0343853 137.030998,16.1303626 C137.366919,16.2263399 137.894794,16.082374 138.182726,15.7944421 C138.470658,15.5065102 138.998533,15.2665669 139.334453,15.2665669 C140.246238,15.2665669 140.102272,16.5622605 139.142499,16.898181 C137.606862,17.4260562 133.527827,19.9694546 133.335872,20.4973297 C133.239895,20.7852616 133.479838,20.8812389 133.911736,20.737273 C134.391622,20.5453184 134.679554,20.6892843 134.679554,21.1691708 C134.679554,22.4648644 136.167202,22.512853 137.846805,21.2651481 C138.758589,20.593307 139.478419,19.8254886 139.478419,19.5375567 C139.478419,19.2976135 140.102272,19.1056589 140.918079,19.1056589 C141.829863,19.1056589 142.501704,18.7697384 142.837625,18.1458859 C143.3655,17.1381243 147.540512,14.9306464 149.41207,14.6427145 C149.939945,14.5467372 150.755752,14.2108166 151.18765,13.8748961 C151.571559,13.5389755 152.195411,13.4429982 152.531332,13.6349528 C152.867252,13.8748961 153.731048,13.9708734 154.450878,13.8748961 C155.602605,13.7789188 155.746571,13.9228847 155.698583,15.122601 C155.650594,16.3703059 155.026742,16.9461697 150.131899,20.1134205 C147.108614,22.0809552 143.70142,24.3844104 142.549693,25.2482061 C141.445954,26.0640131 140.054283,26.7838428 139.526408,26.7838428 C138.950544,26.7838428 138.518646,27.0237861 138.518646,27.2637293 C138.518646,27.5516612 138.230714,27.7436158 137.846805,27.7436158 C137.510885,27.7436158 136.5991,28.2235023 135.831282,28.7993662 C135.111452,29.37523 134.199668,29.9031051 133.815758,29.9990823 C132.951963,30.0950598 128.824939,34.5100154 127.145336,37.1014025 C126.473495,38.1571529 125.417745,39.5968124 124.841881,40.3166421 C124.218029,41.0364719 122.826358,43.4359043 121.722619,45.6913707 C120.61888,47.9468374 119.515141,49.8183948 119.275198,49.8183948 C119.035254,49.8183948 118.8433,50.3462698 118.8433,51.0181108 C118.8433,52.2178271 117.931516,52.9376569 116.875765,52.6017362 C116.491856,52.4577703 116.491856,52.2178271 116.971742,51.7379405 C117.355652,51.3540314 118.171459,49.3864969 118.795311,47.4189621 C119.467152,45.4514275 120.474914,43.1479724 121.098766,42.3321654 C121.722619,41.5163582 122.202505,40.7005512 122.202505,40.5085965 C122.202505,40.3646306 122.970324,39.1169258 123.930097,37.7732435 C124.841881,36.4295615 125.513722,35.1818564 125.321767,35.0378905 C124.985847,34.7019701 124.074063,35.7577202 121.386698,39.7407783 C120.378937,41.1804378 119.419164,42.4281426 119.227209,42.5241198 C118.987266,42.6200973 118.8433,42.9560177 118.8433,43.2919383 C118.8433,43.627859 118.411402,44.2996999 117.883527,44.7795865 C117.355652,45.2594728 117.06772,45.8353366 117.211686,46.0752801 C117.499618,46.5071779 116.251913,49.770406 114.716276,52.7936909 C113.900469,54.3293276 113.132651,60.1359543 113.036673,65.2227513 C112.988685,69.8776501 113.420582,70.4535139 117.06772,70.4535139 C118.555368,70.4535139 119.803073,70.6454686 119.89905,70.8854118 C120.043016,71.3652983 121.146755,71.1733437 127.241313,69.7336842 C133.527827,68.2460362 134.583577,68.1020703 138.854567,68.2460362 C142.885613,68.3900022 145.429012,69.1098319 148.836206,71.0293777 C149.364081,71.3652983 150.323854,71.8451849 151.043684,72.229094 C151.715525,72.5650147 152.771275,73.3808216 153.395127,74.0526626 C154.258923,74.9644471 154.978753,75.252379 156.610367,75.252379 C158.193993,75.252379 159.009799,75.5403109 159.873595,76.4520953 C161.265266,77.7957773 161.505209,79.3794027 160.305493,78.8995164 C159.873595,78.7555505 159.009799,78.4676186 158.385947,78.3236526 C157.330197,78.0357207 157.23422,78.1796867 157.23422,79.6193462 C157.23422,82.8825743 154.450878,89.9369058 152.147423,92.5762816 C151.763514,92.9601907 151.475582,93.5840432 151.475582,93.8719751 C151.475582,94.2078955 151.283627,94.4478389 151.043684,94.4478389 C150.80374,94.4478389 150.46782,94.831748 150.275865,95.3116346 C149.795979,96.9912373 142.165783,104.429478 140.198249,105.293274 C138.134737,106.157069 138.134737,106.157069 131.080405,113.067435 C128.44103,115.658822 125.177801,118.490152 123.882108,119.401937 C122.538426,120.313721 121.386698,121.225505 121.33871,121.41746 C121.098766,121.993324 117.931516,123.241029 116.68381,123.241029 C116.059958,123.241029 115.484094,123.528961 115.340128,123.91287 C115.004208,124.728677 109.293559,127.560007 107.901888,127.560007 C107.374013,127.560007 106.75016,127.79995 106.606194,128.039893 C106.462228,128.327825 105.934353,128.51978 105.502455,128.51978 C105.070557,128.51978 104.110784,128.807712 103.390955,129.191621 C102.719113,129.57553 101.375431,130.103406 100.415658,130.439326 C99.4558854,130.727258 98.6880669,131.207144 98.6880669,131.447088 C98.6880669,131.687031 98.1122031,131.878986 97.4403621,131.878986 C96.4805892,131.878986 96.2886345,132.07094 96.5285776,132.79077 C96.912487,133.990486 95.520816,134.518361 94.8969637,133.414622 C94.4170771,132.646804 94.4170771,132.646804 94.3690884,133.462611 C94.3690884,133.894509 93.9851793,134.278418 93.5532814,134.278418 C91.969656,134.326407 89.3302802,135.958021 89.4742461,136.773828 C89.5222349,137.253714 89.090337,137.733601 88.2745301,138.021533 C87.5067116,138.309465 86.4029727,138.885328 85.827109,139.413203 C85.2032564,139.89309 84.0995176,140.708897 83.4276763,141.284761 C82.7078465,141.860625 81.5081305,142.628443 80.6923232,143.060341 C79.924505,143.44425 78.8207659,144.308046 78.2928909,144.931898 C77.7650158,145.555751 76.7572542,146.467535 76.0854129,146.99541 C75.4615606,147.523285 74.6457534,148.627024 74.309833,149.394843 C73.5420145,151.362377 73.1101167,161.967869 73.7819577,162.399767 C74.1658671,162.591721 74.1178783,162.831665 73.7339692,163.071608 C73.1101167,163.455517 72.5822416,177.468203 73.2060939,177.468203 C73.8779352,177.468203 72.8701735,187.16191 72.0543663,188.505592 C71.3825253,189.609331 70.8546503,188.889501 70.8546503,186.825989 C70.8546503,185.242364 70.6626956,184.6665 70.1348205,184.6665 C69.6069452,184.6665 69.4149908,184.090636 69.4149908,182.507011 C69.4149908,181.307295 69.1750473,180.347522 68.8871154,180.347522 C68.5511951,180.347522 68.5032063,182.219079 68.695161,186.154148 C69.1270589,193.92831 67.8793538,202.80621 66.8715922,199.063095 C66.3437171,196.999583 65.5758986,198.151311 65.5758986,201.126607 C65.5758986,204.677767 65.1919895,206.261392 64.424171,206.261392 C63.5603753,206.261392 61.7368067,208.372893 61.7368067,209.332666 C61.7368067,211.300201 57.1778851,218.018612 52.9548839,222.289602 C51.7071791,223.537306 50.7474059,224.737023 50.9393606,224.880989 C51.0833265,225.024955 51.4672356,224.880989 51.7551675,224.593057 C52.4749973,223.873227 53.9146567,223.825238 54.2985661,224.497079 C54.730464,225.216909 54.1066114,226.896512 53.4347704,226.896512 C53.0988498,226.896512 51.995111,227.472376 50.9393606,228.192205 C49.0678032,229.487899 45.1327339,230.639627 42.3014036,230.687615 C41.5335851,230.735604 39.8059938,231.263479 38.4623118,231.887331 C37.1666182,232.511184 35.2950609,233.231014 34.3352877,233.566934 C32.6556851,234.094809 24.2096828,234.334753 23.7297962,233.854866 Z M30.4961958,221.089885 C31.5519462,220.609999 32.5597078,219.986146 32.7036738,219.698214 C32.8476397,219.458271 33.4235035,219.218328 33.9513786,219.218328 C34.4312652,219.218328 34.863163,219.026373 34.863163,218.738441 C34.863163,218.498498 35.3430493,218.162578 35.9669019,218.018612 C37.886448,217.538725 47.3402118,207.173177 48.7318826,204.005926 C49.0198145,203.430062 49.787633,202.038391 50.5554515,200.886664 C52.2830429,198.199299 55.0183959,192.728593 55.0183959,192.008764 C55.0183959,191.720832 55.3063278,191.336923 55.6422481,191.192957 C55.93018,191.048991 55.6422481,191.048991 54.9224184,191.192957 C53.4347704,191.528877 53.1468385,190.71307 54.1066114,188.93749 C54.8264412,187.545819 54.6344865,179.771658 53.8186795,178.427976 C53.6267248,178.140044 53.3867817,172.525372 53.2428157,166.046904 C53.1468385,159.520448 52.9548839,153.329912 52.8589066,152.274162 C52.8109179,151.218411 52.7149407,150.066684 52.666952,149.730763 C52.522986,148.003172 45.3246886,154.577617 39.5180619,161.727926 C37.5025386,164.175347 35.4390268,166.670757 34.863163,167.294609 C34.3352877,167.870473 33.9033898,168.542314 33.9033898,168.734269 C33.9033898,168.926223 33.471492,169.598064 32.943617,170.269905 C32.4157419,170.941746 31.9838441,171.709565 31.9838441,171.997497 C31.9838441,172.333417 31.1200484,174.01302 30.064298,175.740611 C29.0085476,177.468203 28.144752,179.051828 28.144752,179.243783 C28.144752,179.435737 27.7608428,180.443499 27.2329677,181.499249 C26.1292287,183.994659 24.5456033,189.705308 23.8257736,193.92831 C23.3458871,196.567685 23.1059438,197.143549 22.3381254,197.143549 C21.570307,197.143549 21.4743297,196.903606 21.714273,195.847855 C21.9062276,195.176014 22.0981822,194.120264 22.1461708,193.592389 C22.2901368,191.912786 22.9619779,190.425138 23.489853,190.425138 C23.8737622,190.425138 23.8257736,190.233183 23.489853,189.897263 C22.8660006,189.273411 23.1539325,187.017944 24.1616941,185.146387 C24.4976147,184.474545 24.7855465,183.658739 24.7855465,183.322818 C24.7855465,182.986898 24.9775012,182.363045 25.2174444,181.883158 C25.409399,181.451261 25.9852628,180.203556 26.4171606,179.147805 C26.8970471,178.092055 27.5688882,176.604407 27.9527974,175.884577 C28.3367066,175.116759 28.6246385,174.300952 28.6246385,174.061009 C28.6246385,173.821065 29.392457,172.477383 30.3042411,171.085712 C31.2160256,169.74203 31.9838441,168.350359 31.9838441,168.014439 C31.9838441,167.726507 32.12781,167.390586 32.3677532,167.294609 C32.5597078,167.24662 33.4235035,166.094893 34.3352877,164.75121 C35.2470721,163.455517 36.5427657,161.823903 37.1666182,161.152062 C38.7502437,159.520448 39.2781187,158.416709 38.7022549,158.0328 C38.4623118,157.888834 38.2223683,157.936822 38.2223683,158.224754 C38.2223683,158.464697 36.9746635,160.1443 35.4390268,161.967869 C33.9513786,163.743449 32.4157419,165.806961 32.0318325,166.478802 C31.6959122,167.150643 30.8801049,168.350359 30.2562527,169.070189 C29.6324001,169.790019 29.1045251,170.605826 29.1045251,170.893758 C29.1045251,171.133701 28.4806726,172.141463 27.7608428,173.101235 C26.9930244,174.061009 26.0332514,175.596645 25.6013536,176.50843 C25.1214671,177.420214 24.5935919,178.523953 24.3536487,178.907862 C24.1137055,179.291771 23.4418644,181.259306 22.8660006,183.226841 C22.2421481,185.194375 21.570307,187.017944 21.3303638,187.257887 C21.1384092,187.545819 20.9464546,188.457604 20.9464546,189.321399 C20.9464546,190.233183 20.6585227,191.528877 20.2746135,192.248707 C19.9386929,192.968536 19.4588064,194.936071 19.2668518,196.663663 C19.0748973,198.391254 18.690988,200.070857 18.4030561,200.406777 C17.4912718,201.558505 17.9231697,212.499917 18.9789199,215.139293 C19.2188632,215.667168 19.6987497,217.058839 20.0826589,218.258555 C20.6585227,220.034135 21.1384092,220.609999 22.9139892,221.521783 C25.3134217,222.721499 27.328945,222.625522 30.4961958,221.089885 Z" id="Shape"></path>
                <path d="M48.7798713,24.8163082 C47.580155,24.0484898 45.9965296,23.1846941 45.2287114,22.8487736 C43.5970972,22.1769325 41.5815739,20.4013524 41.5815739,19.6335341 C41.5815739,19.3456022 41.3416307,19.1056589 41.0536988,19.1056589 C40.3818575,19.1056589 37.742482,16.1783513 37.742482,15.4105329 C37.742482,14.1148393 38.8942096,14.3067939 40.5258235,15.8904194 L42.3014036,17.6180108 L42.1574377,15.4585215 C41.9174945,12.8671345 42.6853127,10.8516112 44.3169269,9.65189492 C44.9887679,9.17200841 45.8045752,8.54815599 46.092507,8.26022409 C47.1482571,7.25246245 49.6916558,6.14872349 50.9393606,6.14872349 C51.6112016,6.14872349 52.2830429,5.81280296 52.4749973,5.38090511 C52.666952,4.9010186 53.0988498,4.709064 53.7706908,4.9010186 C54.4905205,5.09297321 55.0183959,4.85302995 55.4502937,4.1332002 C55.9781688,3.26940451 56.4100666,3.17342722 58.8574878,3.36538183 C61.016977,3.50934777 61.5928408,3.41337046 61.4008861,2.93348398 C61.2569201,2.59756342 61.3049089,1.73376773 61.4488748,1.06192663 C61.7847955,-0.233766911 62.0247386,-0.281755561 65.5279102,0.582040134 C66.9195809,0.917960679 68.9351042,2.16566557 68.9351042,2.78951802 C68.9351042,2.98147261 68.6471723,3.50934777 68.2632632,3.8452683 C67.3994675,4.75705266 66.8236037,6.58062133 66.9675696,8.06826948 C67.0155581,8.74011057 66.7276262,9.69988358 66.3917058,10.2277587 C65.9118193,10.8516112 65.8158421,11.4754636 66.1037739,12.243282 C66.3437171,12.9151231 66.3437171,13.8269074 66.0557852,14.5947258 C65.7678533,15.2665669 65.4799214,16.6582378 65.3359555,17.7139881 C65.1919895,18.9616929 64.5201485,20.3533638 63.5603753,21.5050914 C61.6408295,23.8085466 58.8574878,24.6243536 53.3867817,24.4803877 C49.9795877,24.3844104 49.643667,24.4803877 50.5074627,25.0562515 C52.2830429,26.351945 50.9393606,26.1599904 48.7798713,24.8163082 Z" id="Path"></path>
            </g>
        </g>
    </g>
</svg>