<?xml version="1.0" encoding="UTF-8"?>
<svg width="260px" height="221px" viewBox="0 0 260 221" version="1.1" xmlns="http://www.w3.org/2000/svg" xmlns:xlink="http://www.w3.org/1999/xlink">
    <g id="Page-1" stroke="none" stroke-width="1" fill="none" fill-rule="evenodd">
        <g id="cvent-logo" fill-rule="nonzero">
            <path d="M155.227713,0.0631316465 C106.536355,0.0629722922 70.0973138,9.37883576 41.869418,29.4516473 L41.0303281,30.057175 C13.7616512,49.9114036 0.366386639,76.9819134 0.0985574681,110.718931 L0.095,111.682 L0.0965926963,111.607703 C-0.135879415,119.56157 0.689440642,127.525699 2.54477112,135.314744 C4.39515312,143.083015 7.26226216,150.565163 11.0768777,157.578059 C14.8745015,164.590356 19.5923532,171.073732 25.10685,176.854791 L25.7966421,177.5742 C30.883431,182.820988 36.5912696,187.430966 42.7974156,191.303915 L43.568,191.779 L43.4733504,191.716927 C73.056907,211.439298 111.207465,220.894207 161.738035,220.894207 C192.483351,220.894207 223.898533,217.073764 256.138566,209.424127 L259.984257,208.511654 L259.984257,150.044636 L253.613805,151.860246 C222.406641,160.754443 194.910802,165.160579 170.916247,165.160579 C139.507469,165.160579 109.046939,159.447174 93.6732732,149.801576 L93.2120371,149.508084 C77.2742536,139.47724 68.5170025,125.739649 68.5170025,110.399874 C68.4885752,106.472933 68.9692437,102.59198 69.9480147,98.8045615 C70.9269312,95.0307756 72.3898771,91.3823533 74.2900617,87.9790376 C76.2095426,84.5666782 78.5517156,81.4259562 81.2507072,78.6566783 C83.8062159,76.0213314 86.6440284,73.7240922 89.7229386,71.797774 L90.4932049,71.3245631 C105.614595,61.7005346 132.516978,55.2563968 158.088633,55.1217971 L158.904282,55.1196474 C166.440886,55.0579137 173.920735,55.3811171 181.385575,56.0891225 C188.848845,56.7984416 196.265247,57.8926017 203.588429,59.3664496 C210.830476,60.8087964 218.074522,62.6582583 225.340811,64.908464 C232.450315,67.1101168 239.468935,69.6906613 246.411247,72.6504417 L253.372166,75.6181552 L253.372166,15.5615652 L249.890246,14.4520223 C242.189357,11.9980705 234.460263,9.85955426 226.731564,8.05037205 C218.912223,6.22372224 211.055987,4.70445015 203.145435,3.48990082 C195.7928,2.37585612 188.483021,1.53590991 181.225768,0.976499852 L179.257055,0.831549627 C171.251217,0.255129281 163.246576,-0.000891212905 155.227713,0.0631316465 Z" id="outline" fill="#FFFFFF"></path>
            <path d="M254.984257,156.668766 L254.984257,204.559194 C223.13602,212.115869 192.106423,215.894207 161.738035,215.894207 C111.549118,215.894207 74.5843829,206.448363 46.2468514,187.556675 C39.8079345,183.63665 33.9200252,178.882242 28.7248111,173.403652 C23.5138539,167.940806 19.0585642,161.816751 15.4691436,155.188917 C11.8639798,148.561083 9.15617128,141.492443 7.40869018,134.156171 C5.66120907,126.819899 4.87405542,119.29471 5.09445844,111.753778 C5.09445844,79.779597 17.2323678,53.2210327 44.7670025,33.5264484 C72.2858942,13.9578086 107.912469,5.06297229 155.267632,5.06297229 C163.154912,5 171.026448,5.25188917 178.897985,5.8186398 C186.753778,6.36964736 194.593829,7.25125945 202.38665,8.43198992 C210.179471,9.62846348 217.90932,11.1240554 225.59194,12.9187657 C233.258816,14.7134761 240.86272,16.8230479 248.372166,19.215995 L248.372166,68.0510076 C241.31927,65.0440806 234.140428,62.3992443 226.819899,60.1322418 C219.49937,57.8652393 212.084383,55.9603275 204.574937,54.4647355 C197.065491,52.9534005 189.47733,51.8356423 181.857683,51.111461 C174.222292,50.3872796 166.571159,50.0566751 158.904282,50.1196474 C132.471662,50.1196474 104.134131,56.715995 87.8085642,67.1064232 C84.093199,69.3419395 80.6926952,72.0497481 77.6700252,75.1668766 C74.6473552,78.268262 72.0497481,81.7632242 69.9244332,85.5415617 C67.8148615,89.3198992 66.1933249,93.365869 65.1070529,97.5535264 C64.0207809,101.756927 63.4855164,106.070529 63.5170025,110.399874 C63.5170025,128.079345 73.7657431,143.176952 90.5006297,153.709068 C108.038413,165.028338 141.508186,170.160579 170.916247,170.160579 C195.349496,170.160579 223.277708,165.70529 254.984257,156.668766 L254.984257,156.668766 Z" id="logo" fill="#4A90E2"></path>
        </g>
    </g>
</svg>