<svg version="1.2" xmlns="http://www.w3.org/2000/svg" viewBox="0 0 1588 1340" width="1588" height="1340">
	<title>logo (6)-svg</title>
	<style>
		.s0 { fill: #4a90e2 } 
	</style>
	<g id="Layer">
		<g id="Layer">
			<g id="Layer">
				<path id="w2j6e" class="s0" d="m1587.9 963.4v304.2c-202.3 48-399.4 72-592.3 72-318.8 0-553.6-60-733.6-180-40.9-24.9-78.3-55.1-111.3-89.9-33.1-34.7-61.4-73.6-84.2-115.7-22.9-42.1-40.1-87-51.2-133.6-11.1-46.6-16.1-94.4-14.7-142.3 0-203.1 77.1-371.8 252-496.9 174.8-124.3 401.1-180.8 701.9-180.8 50.1-0.4 100.1 1.2 150.1 4.8 49.9 3.5 99.7 9.1 149.2 16.6 49.5 7.6 98.6 17.1 147.4 28.5 48.7 11.4 97 24.8 144.7 40v310.2c-44.8-19.1-90.4-35.9-136.9-50.3-46.5-14.4-93.6-26.5-141.3-36-47.7-9.6-95.9-16.7-144.3-21.3-48.5-4.6-97.1-6.7-145.8-6.3-167.9 0-347.9 41.9-451.6 107.9-23.6 14.2-45.2 31.4-64.4 51.2-19.2 19.7-35.7 41.9-49.2 65.9-13.4 24-23.7 49.7-30.6 76.3-6.9 26.7-10.3 54.1-10.1 81.6 0 112.3 65.1 208.2 171.4 275.1 111.4 71.9 324 104.5 510.8 104.5 155.2 0 332.6-28.3 534-85.7z"/>
			</g>
		</g>
	</g>
</svg>