<svg width="273" height="276" viewBox="0 0 273 276" fill="none" xmlns="http://www.w3.org/2000/svg">
<path d="M0 121.579C0 64.2659 0 35.6095 17.8048 17.8048C35.6095 0 64.2659 0 121.579 0H151.421C208.734 0 237.39 0 255.195 17.8048C273 35.6095 273 64.2659 273 121.579V154.06C273 211.373 273 240.029 255.195 257.834C237.39 275.639 208.734 275.639 151.421 275.639H121.579C64.2659 275.639 35.6095 275.639 17.8048 257.834C0 240.029 0 211.373 0 154.06V121.579Z" fill="#3454E2"/>
<path d="M199.813 186.826L163.373 143.091L196.972 113.083C206.13 104.904 207.032 90.6964 198.987 81.4232C194.994 76.8346 189.445 74.0891 183.379 73.686C177.312 73.302 171.456 75.3179 166.906 79.3689C166.906 79.3689 149.626 94.6706 141.544 102.062C133.922 109.012 120.54 122.855 114.473 138.829C113.283 142.073 112.303 145.395 111.535 148.774C110.23 154.86 109.692 161.407 109.519 170.219L109.711 202.666C109.75 205.891 107.331 208.675 103.491 208.675C99.6511 208.675 97.616 205.43 97.616 202.512L97.6928 56.6371C97.6928 53.4117 100.323 50.7814 103.549 50.7814C105.104 50.7814 106.582 51.3958 107.696 52.4901C108.809 53.6037 109.404 55.0628 109.404 56.6371V122.471C114.415 113.985 120.578 106.555 126.069 100.795V56.6563C126.069 50.647 123.727 44.9833 119.465 40.721C115.222 36.478 109.558 34.1357 103.549 34.1357C91.1267 34.1357 81.028 44.2345 81.028 56.6563L80.9512 202.531C80.9512 214.915 91.0115 225.09 103.414 225.225C103.491 225.225 103.568 225.225 103.645 225.225C109.673 225.225 115.337 222.882 119.618 218.62C123.957 214.3 126.319 208.579 126.3 202.455L126.146 167.051C126.012 149.004 133.499 131.552 145.844 120.493C158.189 109.435 178.003 91.8099 178.003 91.8099C180.479 89.7172 184.377 90.2356 186.412 92.3475C188.447 94.4594 188.294 98.5104 185.894 100.642C185.894 100.642 168.653 115.694 158.631 124.564C155.559 127.29 149.914 132.013 147.86 137.235C146.401 140.921 145.748 146.854 151.239 153.708C156.73 160.562 187.026 197.501 187.026 197.501C188.063 198.749 188.543 200.323 188.351 201.936C188.159 203.549 187.353 204.97 186.066 205.949C183.571 207.83 180.038 207.427 178.022 205.027L138.587 157.893C138.145 167.858 138.357 174.827 138.587 183.755L165.255 215.721C172.973 224.937 186.527 226.492 196.108 219.254C201.003 215.548 204.21 209.942 204.92 203.856C205.63 197.77 203.768 191.569 199.851 186.846L199.813 186.826Z" fill="white"/>
<path d="M199.813 186.826L163.373 143.091L196.972 113.083C206.13 104.904 207.032 90.6964 198.987 81.4232C194.994 76.8346 189.445 74.0891 183.379 73.686C177.312 73.302 171.456 75.3179 166.906 79.3689C166.906 79.3689 149.626 94.6706 141.544 102.062C133.922 109.012 120.54 122.855 114.473 138.829C113.283 142.073 112.303 145.395 111.535 148.774C110.23 154.86 109.692 161.407 109.519 170.219L109.711 202.666C109.75 205.891 107.331 208.675 103.491 208.675C99.6511 208.675 97.616 205.43 97.616 202.512L97.6928 56.6371C97.6928 53.4117 100.323 50.7814 103.549 50.7814C105.104 50.7814 106.582 51.3958 107.696 52.4901C108.809 53.6037 109.404 55.0628 109.404 56.6371V122.471C114.415 113.985 120.578 106.555 126.069 100.795V56.6563C126.069 50.647 123.727 44.9833 119.465 40.721C115.222 36.478 109.558 34.1357 103.549 34.1357C91.1267 34.1357 81.028 44.2345 81.028 56.6563L80.9512 202.531C80.9512 214.915 91.0115 225.09 103.414 225.225C103.491 225.225 103.568 225.225 103.645 225.225C109.673 225.225 115.337 222.882 119.618 218.62C123.957 214.3 126.319 208.579 126.3 202.455L126.146 167.051C126.012 149.004 133.499 131.552 145.844 120.493C158.189 109.435 178.003 91.8099 178.003 91.8099C180.479 89.7172 184.377 90.2356 186.412 92.3475C188.447 94.4594 188.294 98.5104 185.894 100.642C185.894 100.642 168.653 115.694 158.631 124.564C155.559 127.29 149.914 132.013 147.86 137.235C146.401 140.921 145.748 146.854 151.239 153.708C156.73 160.562 187.026 197.501 187.026 197.501C188.063 198.749 188.543 200.323 188.351 201.936C188.159 203.549 187.353 204.97 186.066 205.949C183.571 207.83 180.038 207.427 178.022 205.027L138.587 157.893C138.145 167.858 138.357 174.827 138.587 183.755L165.255 215.721C172.973 224.937 186.527 226.492 196.108 219.254C201.003 215.548 204.21 209.942 204.92 203.856C205.63 197.77 203.768 191.569 199.851 186.846L199.813 186.826Z" fill="white"/>
</svg>
