<?xml version="1.0" encoding="UTF-8"?>
<svg width="270px" height="270px" viewBox="0 0 270 270" version="1.1" xmlns="http://www.w3.org/2000/svg" xmlns:xlink="http://www.w3.org/1999/xlink">
    <defs>
        <linearGradient x1="2.99783874%" y1="34.9292602%" x2="98.2774314%" y2="65.4796342%" id="linearGradient-1">
            <stop stop-color="#FF0264" offset="0%"></stop>
            <stop stop-color="#FE624E" offset="40.83%"></stop>
            <stop stop-color="#FDBC39" offset="81.65%"></stop>
            <stop stop-color="#FDDF31" offset="100%"></stop>
        </linearGradient>
        <linearGradient x1="0.0421734796%" y1="49.9852803%" x2="100.018843%" y2="49.9852803%" id="linearGradient-2">
            <stop stop-color="#140A3B" offset="0%"></stop>
            <stop stop-color="#064E91" offset="68.04%"></stop>
            <stop stop-color="#006AB4" offset="100%"></stop>
        </linearGradient>
        <linearGradient x1="0.464918256%" y1="50.004856%" x2="173.38188%" y2="50.004856%" id="linearGradient-3">
            <stop stop-color="#349FD3" offset="0%"></stop>
            <stop stop-color="#218ABE" offset="35.17%"></stop>
            <stop stop-color="#00679B" offset="100%"></stop>
        </linearGradient>
        <linearGradient x1="1.30454545%" y1="45.19%" x2="102.045455%" y2="45.19%" id="linearGradient-4">
            <stop stop-color="#A34CB4" offset="0%"></stop>
            <stop stop-color="#954DB2" offset="9.192359%"></stop>
            <stop stop-color="#3C52A1" offset="71.69%"></stop>
            <stop stop-color="#19549B" offset="100%"></stop>
        </linearGradient>
        <linearGradient x1="-0.0291469194%" y1="49.9818841%" x2="99.8646919%" y2="49.9818841%" id="linearGradient-5">
            <stop stop-color="#A34CB4" offset="0%"></stop>
            <stop stop-color="#954DB2" offset="9.192359%"></stop>
            <stop stop-color="#3C52A1" offset="71.69%"></stop>
            <stop stop-color="#19549B" offset="100%"></stop>
        </linearGradient>
    </defs>
    <g id="Page-1" stroke="none" stroke-width="1" fill="none" fill-rule="evenodd">
        <g id="manifold-logo">
            <path d="M135.03524,0.738636364 C60.9041994,0.738636364 0.809117045,60.8337187 0.809117045,134.96476 C0.809117045,209.095801 60.9041994,269.190883 135.03524,269.190883 C209.166281,269.190883 269.261364,209.095801 269.261364,134.96476 C269.261364,60.8337187 209.166281,0.738636364 135.03524,0.738636364 Z M135.03524,5.73863636 C206.404858,5.73863636 264.261364,63.5951425 264.261364,134.96476 C264.261364,206.334377 206.404858,264.190883 135.03524,264.190883 C63.6656232,264.190883 5.80911705,206.334377 5.80911705,134.96476 C5.80911705,63.5951425 63.6656232,5.73863636 135.03524,5.73863636 Z" id="Oval" fill="#FFFFFF" fill-rule="nonzero" transform="translate(135.035240, 134.964760) scale(-1, 1) rotate(-180.000000) translate(-135.035240, -134.964760) "></path>
            <circle id="Oval" fill="url(#linearGradient-1)" fill-rule="nonzero" transform="translate(135.035240, 134.964760) scale(-1, 1) rotate(-180.000000) translate(-135.035240, -134.964760) " cx="135.03524" cy="134.96476" r="129.226123"></circle>
            <circle id="Oval" transform="translate(135.035240, 134.964760) scale(-1, 1) rotate(-180.000000) translate(-135.035240, -134.964760) " cx="135.03524" cy="134.96476" r="129.226123"></circle>
            <path d="M262.327806,185.526859 C237.836072,195.087228 139.869135,233.221288 136.002019,234.510327 C133.423942,235.369686 119.889036,241.600039 107.10607,236.658724 C77.5656011,225.164797 78.5323801,163.613202 68.6497506,154.804771 L48.4548119,137.08049 L133.423942,61.4568898 C133.423942,61.4568898 213.451757,36.8577358 263.939104,172.314212 C263.616844,176.825848 263.187165,181.230063 262.327806,185.526859 Z" id="Path" fill="url(#linearGradient-2)" fill-rule="nonzero" transform="translate(156.196958, 149.127851) scale(-1, 1) rotate(-180.000000) translate(-156.196958, -149.127851) "></path>
            <path d="M262.435226,260.514133 C240.091889,270.074503 230.31668,258.365735 227.953442,254.928299 C227.631182,254.498619 227.416343,254.17636 227.416343,254.17636 C222.367608,246.119868 218.285652,234.411101 215.814995,219.157477 L214.955636,213.679062 C213.236918,203.366753 210.87368,194.558323 207.865923,187.57603 C203.783968,177.693401 198.627813,171.248207 192.934559,168.240451 C190.463902,166.951412 187.670985,166.306893 184.985488,166.414312 C177.143836,166.629152 168.765085,172.752086 160.708593,185.427632 C155.445019,193.591544 150.718544,199.607057 145.347549,202.507394 C125.58229,213.034543 106.56897,188.865069 106.56897,152.557147 C106.56897,139.237081 109.254468,124.305717 112.691904,111.093071 C119.996456,109.804032 127.408428,109.159513 135.03524,109.159513 C206.469465,109.159513 264.261364,167.058832 264.261364,238.385636 C264.261364,245.905028 263.616844,253.317001 262.435226,260.514133 Z" id="Path" fill="url(#linearGradient-3)" fill-rule="nonzero" transform="translate(185.415167, 186.675198) scale(-1, 1) rotate(-180.000000) translate(-185.415167, -186.675198) "></path>
            <g id="Group" transform="translate(74.880104, 188.137603) scale(-1, 1) rotate(-180.000000) translate(-74.880104, -188.137603) translate(5.057178, 113.480782)" fill-rule="nonzero">
                <path d="M136.530676,93.7775608 L138.893913,92.8107818 C138.141974,93.1330415 137.390035,93.4553011 136.530676,93.7775608 Z" id="Path" fill="url(#linearGradient-4)"></path>
                <path d="M0.751939205,127.829665 C0.751939205,63.1628932 48.231529,9.56036989 110.320223,0.107419886 C106.882787,12.5681267 103.98245,26.8549716 103.98245,39.5305182 C103.98245,71.0045449 118.806394,99.6856545 136.745515,93.7775608 L2.47065739,148.346863 C1.28903864,141.68683 0.751939205,134.811957 0.751939205,127.829665 Z" id="Path" fill="url(#linearGradient-5)"></path>
            </g>
        </g>
    </g>
</svg>