<?xml version="1.0" encoding="utf-8"?>
<!-- Generator: Adobe Illustrator 21.1.0, SVG Export Plug-In . SVG Version: 6.00 Build 0)  -->
<svg version="1.1" id="Layer_1" xmlns="http://www.w3.org/2000/svg" xmlns:xlink="http://www.w3.org/1999/xlink" x="0px" y="0px"
	 viewBox="0 0 350 350" style="enable-background:new 0 0 350 350;" xml:space="preserve">
<style type="text/css">
	.st0{fill:url(#SVGID_4_);}
	.st1{fill:none;}
	.st2{fill:url(#SVGID_5_);}
	.st3{fill:url(#SVGID_6_);}
	.st4{fill:url(#SVGID_7_);}
	.st5{fill:url(#SVGID_8_);}
	.st6{fill:#EB6852;}
	.st7{clip-path:url(#SVGID_9_);fill:#FFB359;}
	.st8{fill:#0C316D;}
	.st9{fill:#0076A9;}
	.st10{fill:url(#SVGID_11_);}
	.st11{fill:#6B478E;}
	.st12{clip-path:url(#SVGID_13_);fill:#4597CB;}
	.st13{fill:none;stroke:#000000;stroke-width:15;stroke-miterlimit:10;}
	.st14{fill:none;stroke:#FFFFFF;stroke-width:15;stroke-miterlimit:10;}
	.st15{fill:#FFFFFF;}
	.st16{fill:none;stroke:#000000;stroke-width:9;stroke-miterlimit:10;}
	.st17{fill:none;stroke:#FFFFFF;stroke-width:9;stroke-miterlimit:10;}
	.st18{fill:none;stroke:#000000;stroke-width:7;stroke-miterlimit:10;}
	.st19{fill:none;stroke:#FFFFFF;stroke-width:7;stroke-miterlimit:10;}
</style>
<symbol  id="logo-color" viewBox="-120.3 -120.3 240.7 240.7">
	<linearGradient id="SVGID_4_" gradientUnits="userSpaceOnUse" x1="-113.0872" y1="-36.2602" x2="116.1555" y2="37.244">
		<stop  offset="0" style="stop-color:#FF0264"/>
		<stop  offset="0.4083" style="stop-color:#FE624E"/>
		<stop  offset="0.8165" style="stop-color:#FDBC39"/>
		<stop  offset="1" style="stop-color:#FDDF31"/>
	</linearGradient>
	<circle class="st0" cx="0" cy="0" r="120.3"/>
	<circle class="st1" cx="0" cy="0" r="120.3"/>
	<linearGradient id="SVGID_5_" gradientUnits="userSpaceOnUse" x1="-80.5154" y1="-13.2093" x2="120.0378" y2="-13.2093">
		<stop  offset="0" style="stop-color:#140A3B"/>
		<stop  offset="0.6804" style="stop-color:#064E91"/>
		<stop  offset="1" style="stop-color:#006AB4"/>
	</linearGradient>
	<path class="st2" d="M118.5,20.7C95.7,29.6,4.5,65.1,0.9,66.3c-2.4,0.8-15,6.6-26.9,2c-27.5-10.7-26.6-68-35.8-76.2l-18.8-16.5
		l79.1-70.4c0,0,74.5-22.9,121.5,103.2C119.7,12.6,119.3,16.7,118.5,20.7z"/>
	<linearGradient id="SVGID_6_" gradientUnits="userSpaceOnUse" x1="-25.8175" y1="-48.1316" x2="228.0246" y2="-48.1316">
		<stop  offset="0" style="stop-color:#349FD3"/>
		<stop  offset="0.3517" style="stop-color:#218ABE"/>
		<stop  offset="1" style="stop-color:#00679B"/>
	</linearGradient>
	<path class="st3" d="M118.6,20.6c-20.8,8.9-29.9-2-32.1-5.2C86.2,15,86,14.7,86,14.7c-4.7-7.5-8.5-18.4-10.8-32.6L74.4-23
		c-1.6-9.6-3.8-17.8-6.6-24.3c-3.8-9.2-8.6-15.2-13.9-18c-2.3-1.2-4.9-1.8-7.4-1.7c-7.3,0.2-15.1,5.9-22.6,17.7
		C19-41.7,14.6-36.1,9.6-33.4c-18.4,9.8-36.1-12.7-36.1-46.5c0-12.4,2.5-26.3,5.7-38.6c6.8-1.2,13.7-1.8,20.8-1.8
		c66.5,0,120.3,53.9,120.3,120.3C120.3,7,119.7,13.9,118.6,20.6z"/>
	<g>
		<linearGradient id="SVGID_7_" gradientUnits="userSpaceOnUse" x1="6.1287" y1="-32.1981" x2="8.345" y2="-32.1981">
			<stop  offset="0" style="stop-color:#A34CB4"/>
			<stop  offset="9.192359e-02" style="stop-color:#954DB2"/>
			<stop  offset="0.7169" style="stop-color:#3C52A1"/>
			<stop  offset="1" style="stop-color:#19549B"/>
		</linearGradient>
		<path class="st4" d="M6.1-31.7l2.2-0.9C7.6-32.3,6.9-32,6.1-31.7z"/>
		<linearGradient id="SVGID_8_" gradientUnits="userSpaceOnUse" x1="-120.3369" y1="-49.925" x2="6.1287" y2="-49.925">
			<stop  offset="0" style="stop-color:#A34CB4"/>
			<stop  offset="9.192359e-02" style="stop-color:#954DB2"/>
			<stop  offset="0.7169" style="stop-color:#3C52A1"/>
			<stop  offset="1" style="stop-color:#19549B"/>
		</linearGradient>
		<path class="st5" d="M-120.3,0c0-60.2,44.2-110.1,102-118.9c-3.2,11.6-5.9,24.9-5.9,36.7c0,29.3,13.8,56,30.5,50.5l-125,50.8
			C-119.8,12.9-120.3,6.5-120.3,0z"/>
	</g>
</symbol>
<g id="XMLID_1_">
	<g>
		<g>
			<defs>
				<path id="SVGID_12_" d="M293.1-236c-20.8-8.9-29.9,2-32.1,5.2c-0.3,0.5-0.5,0.7-0.5,0.7c-4.7,7.5-8.5,18.4-10.8,32.6l-0.8,5.1
					c-1.6,9.6-3.8,17.8-6.6,24.3c-3.8,9.2-8.6,15.2-13.9,18c-2.3,1.2-4.9,1.8-7.4,1.7c-7.3-0.2-15.1-5.9-22.6-17.7
					c-4.9-7.7-9.3-13.4-14.3-16.1c-18.4-9.8-36.1,12.7-36.1,46.5c0,12.4,2.5,26.3,5.7,38.6c6.8,1.2,13.7,1.8,20.8,1.8
					c66.5,0,120.3-53.9,120.3-120.3C294.9-222.4,294.3-229.3,293.1-236z"/>
			</defs>
			<clipPath id="SVGID_9_">
				<use xlink:href="#SVGID_12_"  style="overflow:visible;"/>
			</clipPath>
			<polygon style="clip-path:url(#SVGID_9_);fill:#4597CB;" points="118,-336 327,5 68,-54 46,-290 			"/>
		</g>
	</g>
</g>
<use xlink:href="#logo-color"  width="240.7" height="240.7" id="XMLID_3_" x="-120.3" y="-120.3" transform="matrix(1.4543 0 0 -1.4543 175 175)" style="overflow:visible;"/>
</svg>
