<?xml version="1.0" encoding="UTF-8"?>
<svg width="195px" height="195px" viewBox="0 0 195 195" version="1.1" xmlns="http://www.w3.org/2000/svg" xmlns:xlink="http://www.w3.org/1999/xlink">
    <g id="Page-1" stroke="none" stroke-width="1" fill="none" fill-rule="evenodd">
        <g id="mariner-logo">
            <g id="Group-3">
                <circle id="Oval" fill="#FFFFFF" cx="97.5" cy="97.5" r="97.5"></circle>
                <circle id="Oval" fill="#0662A9" cx="97.5" cy="97.5" r="92.5"></circle>
            </g>
            <path d="M93.000406,59.8500552 C89.5768433,59.1553066 87,56.1285803 87,52.5 C87,48.3578644 90.3578644,45 94.5,45 C98.6421356,45 102,48.3578644 102,52.5 C102,56.1282257 99.4236604,59.154715 96.0005978,59.8498515 L96,96.038 L123.154172,71.5902499 C121.37966,68.5811694 121.904711,64.6409264 124.601272,62.2129323 C127.679479,59.4413026 132.421708,59.6898323 135.193338,62.7680389 C137.964968,65.8462456 137.716438,70.5884749 134.638231,73.3601047 C131.941934,75.7878615 127.968907,75.8983847 125.161844,73.8196905 L98.305,98 L131.149945,98.000406 C131.844693,94.5768433 134.87142,92 138.5,92 C142.642136,92 146,95.3578644 146,99.5 C146,103.642136 142.642136,107 138.5,107 C134.871774,107 131.845285,104.42366 131.150149,101.000598 L99.417,101 L125.16102,124.180919 C127.96813,122.101594 131.941671,122.211901 134.638231,124.639895 C137.716438,127.411525 137.964968,132.153754 135.193338,135.231961 C132.421708,138.310168 127.679479,138.558697 124.601272,135.787068 C121.904975,133.359311 121.379763,129.419601 123.153652,126.410632 L96,101.961 L96.0005978,136.150149 C99.3470347,136.829724 101.884232,139.737446 101.996146,143.257269 L102,143.5 C102,147.642136 98.6421356,151 94.5,151 C90.3578644,151 87,147.642136 87,143.5 C87,139.87142 89.5768433,136.844693 93.000406,136.149945 Z" id="Combined-Shape" fill="#FFFFFF"></path>
        </g>
    </g>
</svg>