<?xml version="1.0" encoding="UTF-8"?>
<svg width="146px" height="231px" viewBox="0 0 146 231" version="1.1" xmlns="http://www.w3.org/2000/svg" xmlns:xlink="http://www.w3.org/1999/xlink">
    <defs>
        <path d="M6.27,12.784 C3.451,10.679 0.559,8.023 0.559,5.986 C0.559,4.648 2.963,0.524 2.963,0.524 L20.844,0.524 C20.844,0.524 23.189,4.18 23.189,5.986 C23.189,7.883 20.271,10.466 17.358,12.57 C16.367,10.89 15.105,10.599 14.523,11.923 C14.222,12.609 14.162,13.596 14.309,14.63 C12.723,15.638 11.564,16.288 11.564,16.288 C11.564,16.288 10.669,15.773 9.389,14.945 C9.596,13.8 9.556,12.678 9.224,11.923 C8.636,10.581 7.35,10.899 6.35,12.639 C6.323,12.686 6.296,12.735 6.27,12.784 Z" id="path-1"></path>
    </defs>
    <g stroke="none" stroke-width="1" fill="none" fill-rule="evenodd">
        <g id="snyk-logo">
            <path d="M126.489,60.822 L19.43,60.822 C19.43,54.115 29.107,33.8412 48.461,0.0001 C48.461,0.0001 51.14,17.8478 56.5,53.543 L89.207,53.544 L97.235,0.0001 C116.738,34.2899 126.489,54.564 126.489,60.822 Z" id="Path" fill="#FFFFFF" fill-rule="nonzero"></path>
            <path d="M72.795,230.502 L0,179.446 L0,60.284 C0,60.284 26.915,50.342 72.889,50.342 C118.863,50.342 145.581,60.284 145.581,60.284 L145.581,179.446 L72.795,230.502 Z" id="Path" fill="#FFFFFF" fill-rule="nonzero"></path>
            <path d="M72.795,223.326 L4.651,175.731 L4.651,65.067 C4.651,65.067 30.134,55.833 72.795,55.833 L72.795,223.326 Z" id="Path" fill="#DBDBDB" fill-rule="nonzero"></path>
            <path d="M72.888,55.833 C72.857,55.833 72.827,55.833 72.796,55.833 L72.796,223.185 L72.797,223.185 L140.342,175.728 L140.342,65.067 C140.342,65.067 115.549,55.833 72.888,55.833 Z" id="Path" fill="#C6C6C6" fill-rule="nonzero"></path>
            <path d="M109.668,197.287 L103.922,147.303 L72.341,147.303 C72.341,186.975 72.341,212.355 72.341,223.442 L72.795,223.872 C85.082,215.459 97.373,206.597 109.668,197.287 Z" id="Path" fill="#3B3B63" fill-rule="nonzero"></path>
            <polygon id="Path" fill="#53537A" fill-rule="nonzero" points="35.943 197.682 72.795 223.872 72.814 145.781 40.897 145.781"></polygon>
            <path d="M88.565,182.887 C88.565,191.474 80.425,195.731 72.957,195.731 C65.489,195.731 57.184,191.474 57.184,182.887" id="Path" fill="#BC9375" fill-rule="nonzero"></path>
            <path d="M72.874,187.328 C66.879,187.328 63.963,182.994 63.963,174.084 L66.822,174.084 C66.822,184.515 70.909,184.515 72.874,184.515 C74.839,184.515 78.926,184.515 78.926,174.084 L81.784,174.084 C81.784,182.994 78.869,187.328 72.874,187.328 Z" id="Path" fill="#FFFFFF" fill-rule="nonzero"></path>
            <path d="M72.796,176.259 C74.64,181.037 78.206,183.427 83.492,183.427 C88.668,183.427 94.068,180.743 96.528,174.111 C99.963,164.833 99.929,151.92 99.929,151.92 C99.929,151.92 115.195,133.096 115.195,126.73 C115.195,126.73 101.062,126.73 72.796,126.73 L72.796,176.259 Z" id="Path" fill="#C49A7E" fill-rule="nonzero"></path>
            <path d="M29.781,126.73 C29.781,134.102 44.915,151.92 44.915,151.92 C44.915,151.92 44.878,164.83 48.317,174.111 C50.771,180.738 56.177,183.427 61.354,183.427 C66.64,183.427 70.454,181.037 72.795,176.259 L72.795,126.73 L29.781,126.73 Z" id="Path" fill="#D8B7A0" fill-rule="nonzero"></path>
            <path d="M113.373,84.344 C101.604,72.459 98.661,47.675 98.661,47.675 C96.464,55.485 91.688,78.51 91.688,78.51 C91.688,78.51 82.412,75.555 72.42,75.54 C72.092,75.54 72.092,106.563 72.42,168.609 L81.933,161.837 L83.701,128.972 L93.829,140.354 L106.877,144.11 C106.877,144.11 111.759,140.681 111.759,140.694 C113.831,137.835 114.519,135.399 115.02,134.135 C116.832,129.536 112.763,94.37 112.763,94.37 C111.319,91.391 113.373,84.344 113.373,84.344 Z" id="Path" fill="#3B3B63" fill-rule="nonzero"></path>
            <path d="M54.151,78.508 C54.151,78.508 49.374,55.484 47.178,47.674 C47.178,47.674 44.237,72.457 32.467,84.342 C32.467,84.342 34.521,91.39 33.076,94.368 C33.076,94.368 29.007,129.536 30.819,134.128 C31.32,135.392 32.013,137.827 34.083,140.687 C34.083,140.674 38.967,144.103 38.967,144.103 L52.012,140.347 L62.138,128.966 L63.911,161.831 L72.805,168.424 L72.805,75.365 C62.776,75.382 54.151,78.508 54.151,78.508 Z" id="Path" fill="#53537A" fill-rule="nonzero"></path>
            <path d="M105.137,24.7077 C107.09,28.292 123.875,61.428 123.875,72.904 L116.43,92.877 C117.69,104.147 120.195,128.635 118.304,133.419 C117.136,136.378 112.686,142.466 108.88,147.396 L114.084,194.181 L107.049,199.171 L103.137,164.986 C102.6,168.455 101.791,172.159 100.559,175.485 C98.929,179.888 96.049,183.224 92.365,185.201 C92.149,195.755 82.268,201.449 72.957,201.449 C63.569,201.449 53.604,195.759 53.385,185.209 C49.694,183.229 46.81,179.893 45.178,175.485 C43.995,172.287 43.198,168.747 42.657,165.394 L38.916,199.799 L31.843,194.728 L36.951,147.539 C33.114,142.587 28.578,136.408 27.4,133.416 C25.509,128.631 27.916,104.147 29.178,92.875 L21.29,72.202 L21.29,71.528 C21.29,60.053 38.515,28.292 40.47,24.7077 L46.049,14.6449 C49.446,37.9595 51.143,49.627 51.14,49.648 L53.887,68.541 L57.501,74.392 C60.974,73.238 66.869,71.635 72.838,71.635 C78.814,71.635 84.748,73.243 88.236,74.396 L91.848,68.542 L99.674,14.6449 L105.137,24.7077 Z M72.957,193.947 C77.078,193.947 82.947,192.112 84.412,187.247 C84.255,187.252 84.103,187.265 83.946,187.265 C83.144,187.265 82.394,187.19 81.667,187.092 C79.541,190.004 76.229,190.887 72.875,190.887 C69.526,190.887 66.221,189.996 64.099,187.089 C63.367,187.191 62.609,187.265 61.801,187.265 C61.646,187.265 61.497,187.252 61.346,187.247 C62.826,192.112 68.774,193.947 72.957,193.947 Z M68.131,185.951 C69.409,186.894 70.989,187.418 72.878,187.418 C74.757,187.418 76.329,186.89 77.605,185.951 C76.588,185.505 75.667,184.974 74.855,184.395 C74.12,184.609 73.416,184.605 72.874,184.605 C72.329,184.605 71.618,184.605 70.878,184.39 C70.068,184.974 69.149,185.505 68.131,185.951 Z M97.413,149.657 C102.476,143.465 110.098,133.494 111.202,130.703 C112.035,127.83 110.614,108.783 108.807,92.818 L108.707,91.933 L110.201,87.967 C105.276,82.797 101.84,75.713 99.492,69.023 L99.187,71.125 L91.41,83.708 L88.373,82.434 C88.298,82.402 80.369,79.133 72.842,79.133 C65.268,79.133 57.467,82.399 57.39,82.431 L54.349,83.716 L46.563,71.127 L46.332,69.515 C43.959,76.139 40.519,83.099 35.617,88.156 L37.044,91.936 L36.944,92.822 C35.136,108.783 33.715,127.83 34.576,130.776 C35.652,133.499 43.275,143.47 48.336,149.657 L49.18,150.69 L49.176,152.014 C49.176,152.139 49.19,164.387 52.348,172.91 C54.64,179.092 59.724,179.753 61.807,179.753 C67.042,179.753 69.257,175.023 69.349,174.822 C70.575,172.446 71.189,168.541 71.189,163.109 L74.354,163.109 C74.354,167.474 75.014,171.386 76.334,174.848 C76.414,175.019 78.684,179.765 83.946,179.765 C86.024,179.765 91.11,179.096 93.401,172.914 C96.568,164.361 96.572,152.139 96.572,152.019 L96.568,150.695 L97.413,149.657 Z" id="Shape" fill="#333152" fill-rule="nonzero"></path>
            <path d="M96.549,116.367 L85.117,116.367 L81.307,116.367 L81.307,116.525 C81.307,121.765 85.909,126.009 91.308,126.009 C96.709,126.009 101.312,121.764 101.312,116.525 L101.312,116.367 L96.549,116.367 Z" id="Path" fill="#333152" fill-rule="nonzero"></path>
            <path d="M85.117,116.367 L85.117,116.525 C85.117,119.642 87.666,122.167 90.834,122.167 C94.002,122.167 96.55,119.642 96.55,116.525 L96.55,116.367 L85.117,116.367 Z" id="Path" fill="#FFFFFF" fill-rule="nonzero"></path>
            <path d="M89.919,116.367 C89.893,116.367 89.87,116.38 89.847,116.384 C90.179,116.453 90.363,117.194 90.292,117.688 C90.185,118.442 89.532,118.966 88.784,118.978 C89.002,119.964 89.818,120.757 90.903,120.907 C92.289,121.1 93.57,120.165 93.766,118.802 C93.908,117.799 93.417,116.367 92.598,116.367 L89.919,116.367 Z" id="Path" fill="#333152" fill-rule="nonzero"></path>
            <path d="M59.754,116.367 L48.323,116.367 L44.512,116.367 L44.512,116.525 C44.512,121.765 49.116,126.009 54.514,126.009 C59.915,126.009 64.519,121.764 64.519,116.525 L64.519,116.367 L59.754,116.367 Z" id="Path" fill="#333152" fill-rule="nonzero"></path>
            <path d="M48.324,116.367 L48.324,116.525 C48.324,119.642 50.874,122.167 54.038,122.167 C57.207,122.167 59.755,119.642 59.755,116.525 L59.755,116.367 L48.324,116.367 Z" id="Path" fill="#FFFFFF" fill-rule="nonzero"></path>
            <path d="M55.804,116.367 L53.123,116.367 C53.099,116.367 53.074,116.38 53.053,116.384 C53.384,116.453 53.567,117.194 53.497,117.688 C53.39,118.442 52.74,118.966 51.988,118.978 C52.208,119.964 53.025,120.757 54.108,120.907 C55.493,121.1 56.777,120.165 56.97,118.802 C57.113,117.799 56.624,116.367 55.804,116.367 Z" id="Path" fill="#333152" fill-rule="nonzero"></path>
            <path d="M95.4,111.895 C96.04,111.205 101.473,105.138 94.206,105.138 C87.64,105.138 82.915,110.352 81.663,111.895 L95.4,111.895 Z" id="Path" fill="#C49A7E" fill-rule="nonzero"></path>
            <path d="M64.055,111.895 C62.803,110.352 58.079,105.138 51.51,105.138 C44.247,105.138 49.681,111.205 50.317,111.895 L64.055,111.895 Z" id="Path" fill="#D8B7A0" fill-rule="nonzero"></path>
            <path d="M29.12,70.918 C29.552,64.965 35.845,50.704 41.847,38.6853 L43.447,49.674 C42.837,53.783 40.048,69.897 32.567,80.054 L29.12,70.918 Z" id="Path" fill="#D8B7A0" fill-rule="nonzero"></path>
            <path d="M102.428,48.819 L103.903,38.6862 C109.905,50.704 116.201,64.966 116.633,70.919 L113.267,79.838 C105.184,68.657 102.648,50.48 102.428,48.819 Z" id="Path" fill="#C49A7E" fill-rule="nonzero"></path>
            <g id="Clipped" transform="translate(61.000000, 157.000000)">
                <mask id="mask-2" fill="white">
                    <use xlink:href="#path-1"></use>
                </mask>
                <g id="Path"></g>
                <path d="M6.27,12.784 C3.451,10.679 0.559,8.023 0.559,5.986 C0.559,4.648 2.963,0.524 2.963,0.524 L20.844,0.524 C20.844,0.524 23.189,4.18 23.189,5.986 C23.189,7.883 20.271,10.466 17.358,12.57 C16.367,10.89 15.105,10.599 14.523,11.923 C14.222,12.609 14.162,13.596 14.309,14.63 C12.723,15.638 11.564,16.288 11.564,16.288 C11.564,16.288 10.669,15.773 9.389,14.945 C9.596,13.8 9.556,12.678 9.224,11.923 C8.636,10.581 7.35,10.899 6.35,12.639 C6.323,12.686 6.296,12.735 6.27,12.784 Z" id="Path" fill="#333152" fill-rule="nonzero" mask="url(#mask-2)"></path>
            </g>
        </g>
    </g>
</svg>