<?xml version="1.0" encoding="UTF-8"?>
<svg width="160px" height="147px" viewBox="0 0 160 147" version="1.1" xmlns="http://www.w3.org/2000/svg" xmlns:xlink="http://www.w3.org/1999/xlink">
    <!-- Generator: Sketch 60.1 (88133) - https://sketch.com -->
    <title>unb-logo</title>
    <desc>Created with Sketch.</desc>
    <g id="Page-1" stroke="none" stroke-width="1" fill="none" fill-rule="evenodd">
        <path d="M0,141.075428 C31.3893192,128.163299 54.7025422,110.104021 69.9396691,86.8975917 C85.176796,63.6911629 86.6398477,34.725299 74.3288244,0 C104.220794,10.4931206 126.813115,23.8576131 142.105789,40.0934776 C152.191761,50.8015124 161.107772,70.0243236 158.714739,98.455 C157.520781,112.639935 150.854115,128.578268 138.714739,146.27 C137.754514,140.400619 131.961296,134.933274 121.335084,129.867965 C111.346909,125.106794 94.0005658,122.288764 77.2960559,121.413874 C76.584676,121.376616 76.5039029,120.995325 77.0537366,120.27 C85.8062732,120.037234 94.1069428,120.254185 101.955745,120.920851 C109.804548,121.587518 115.597661,122.370568 119.335084,123.27 C130.186277,110.721015 135.611874,93.8876816 135.611874,72.77 C135.611874,51.6523184 124.059831,31.9596517 100.955745,13.692 C107.364931,27.9210309 107.698264,46.4965297 101.955745,69.4184964 C96.2132265,92.340463 79.83354,110.518445 52.816686,123.952442 C44.3811899,126.338514 36.7193726,128.713314 29.831234,131.07684 C23.3619436,133.296647 14.1973544,137.665517 2.33746658,142.18345 C1.82556165,142.378456 1.04640613,142.009116 0,141.075428 Z" id="unb-logo" fill="#D82836"></path>
    </g>
</svg>