<?xml version="1.0" encoding="UTF-8"?>
<svg width="265px" height="252px" viewBox="0 0 265 252" version="1.1" xmlns="http://www.w3.org/2000/svg" xmlns:xlink="http://www.w3.org/1999/xlink">
    <g stroke="none" stroke-width="1" fill="none" fill-rule="evenodd">
        <g id="unb-logo">
            <path d="M127.733919,3.46147649 L117.87314,0 L121.365216,9.84998463 C140.222534,63.0402034 138.00521,106.939343 115.001707,141.974109 C91.6450356,177.546755 55.8195863,205.298464 7.38541445,225.222065 L2.84217094e-14,228.260086 L5.95865914,233.57688 C8.90851632,236.20898 11.5660972,237.468745 14.7402552,236.259574 L15.9415512,235.796417 C26.1504755,231.821116 52.4311675,220.744943 57.6260918,218.919575 L57.7830896,218.865026 C67.6897595,215.465751 78.6358555,212.047698 90.61984,208.611918 L94.0856667,207.625823 L94.5027445,207.418434 C138.184109,185.698091 164.931083,156.014616 174.337145,118.469169 L174.612414,117.360659 C181.420496,89.6983259 182.704955,65.8176049 178.368096,45.7421864 L178.22854,45.1082441 L178.549381,45.4070266 C204.530724,69.7661796 217.369728,95.4434595 217.369728,122.520196 L217.367283,123.479636 C217.21405,153.481858 209.858506,177.509578 195.378271,195.744194 L194.90054,196.340244 L194.616033,196.283926 L193.592437,196.089377 C187.676655,194.994909 179.798119,194.035749 169.910202,193.195882 C157.387592,192.132229 144.159892,191.786503 130.226455,192.15705 L127.82566,192.220897 L126.37483,194.134789 C125.134251,195.771326 124.462128,197.357009 124.915165,199.495582 C125.565592,202.565939 127.923837,203.811964 130.478612,203.945769 L132.291201,204.045435 C159.426753,205.608502 184.101383,210.226652 197.785637,216.749672 L198.924239,217.299396 C213.546253,224.450629 221.160627,231.785307 222.310749,238.815435 L224.321534,251.106379 L231.367936,240.837066 C250.893786,212.380407 261.695035,186.557319 263.652832,163.297508 C267.114594,122.169694 256.186791,88.9541167 236.213062,67.748488 L235.470567,66.9653007 C216.572976,47.1606804 191.009413,30.1014796 158.800958,15.7491799 L154.955738,14.0622165 C146.341785,10.3415173 137.267718,6.80817125 127.733919,3.46147649 Z" id="outer" fill="#FFFFFF" fill-rule="nonzero"></path>
            <path d="M9,229.666879 C58.3209379,209.378503 94.9521887,181.002591 118.893752,144.539142 C142.835316,108.075693 145.134158,62.5626461 125.790278,8 C172.758483,24.4874729 208.257006,45.4866319 232.285849,70.997477 C248.133584,87.8226371 262.143,118.026767 258.38291,162.698893 C256.506887,184.987185 246.031787,210.03053 226.957611,237.828928 C225.448844,228.606576 216.346163,220.015928 199.649568,212.056984 C183.955497,204.575924 156.699797,200.148052 130.452585,198.773368 C129.334819,198.714826 129.207903,198.115716 130.071838,196.976039 C143.824392,196.610302 156.866943,196.951189 169.199492,197.998699 C181.532041,199.046209 190.634556,200.276587 196.507038,201.689833 C213.557137,181.972053 222.082187,155.522426 222.082187,122.340952 C222.082187,89.1594788 203.930867,58.2170814 167.628227,29.51376 C177.698756,51.871338 178.222511,81.0583686 169.199492,117.074852 C160.176473,153.091335 134.439645,181.653762 91.9890088,202.762131 C78.7346093,206.511282 66.6958641,210.242722 55.8727732,213.956448 C45.7078037,217.444353 31.3078058,224.309006 12.6727794,231.407875 C11.8684411,231.714282 10.6441813,231.13395 9,229.666879 Z" id="inner" fill="#D82836"></path>
        </g>
    </g>
</svg>